<svg width="64" height="65" viewBox="0 0 64 65" fill="none" xmlns="http://www.w3.org/2000/svg">
    <g clip-path="url(#clip0_426_2597)">
        <path
            d="M50.6666 0.462402H13.3334C5.97325 0.471277 0.008875 6.43565 0 13.7958V51.1292C0.008875 58.4892 5.97325 64.4537 13.3334 64.4624H50.6668C58.0268 64.4537 63.9912 58.4892 64 51.129V13.7958C63.9912 6.43565 58.0268 0.471277 50.6666 0.462402ZM53.3334 22.0064L28.656 46.6838C26.5736 48.767 23.1968 48.7677 21.1135 46.6853C21.113 46.6848 21.1125 46.6843 21.112 46.6838L10.6666 36.2412C9.62313 35.1977 9.62313 33.5059 10.6666 32.4625C11.7101 31.4192 13.4019 31.419 14.4452 32.4625L24.8879 42.9052L49.5679 18.2278C50.6114 17.188 52.3001 17.191 53.3399 18.2344C54.3797 19.2779 54.3767 20.9667 53.3334 22.0064Z"
            fill="black" />
    </g>
    <defs>
        <clipPath id="clip0_426_2597">
            <rect width="64" height="64" fill="white" transform="translate(0 0.462402)" />
        </clipPath>
    </defs>
</svg>