<svg width="64" height="65" viewBox="0 0 64 65" fill="none" xmlns="http://www.w3.org/2000/svg">
    <g clip-path="url(#clip0_426_2590)">
        <path
            d="M49.3334 64.4624H14.6666C6.57012 64.4535 0.008875 57.8923 0 49.7958V15.129C0.008875 7.03253 6.57012 0.471277 14.6666 0.462402H49.3332C57.4299 0.471277 63.9911 7.03253 64 15.129V49.7957C63.9911 57.8923 57.4299 64.4535 49.3334 64.4624ZM14.6666 8.4624C10.9847 8.4624 8 11.4472 8 15.129V49.7957C8 53.4776 10.9847 56.4624 14.6666 56.4624H49.3332C53.0152 56.4624 56 53.4776 56 49.7958V15.129C56 11.4472 53.0152 8.4624 49.3334 8.4624H14.6666Z"
            fill="black" />
        <path
            d="M25.7787 47.8944C24.096 47.8955 22.4827 47.2234 21.2987 46.0278L13.3334 38.0758C11.7707 36.5142 11.77 33.9815 13.3316 32.4189C13.3322 32.4183 13.3329 32.4177 13.3334 32.417C14.8954 30.8555 17.4274 30.8555 18.9894 32.417L25.7787 39.2037L45.0107 19.9717C46.5727 18.4102 49.1047 18.4102 50.6667 19.9717C52.2294 21.5333 52.2301 24.0659 50.6685 25.6285C50.6679 25.6292 50.6672 25.6298 50.6667 25.6303L30.2561 46.041C29.0709 47.2317 27.4587 47.899 25.7787 47.8944Z"
            fill="black" />
    </g>
    <defs>
        <clipPath id="clip0_426_2590">
            <rect width="64" height="64" fill="white" transform="translate(0 0.462402)" />
        </clipPath>
    </defs>
</svg>