<svg width="64" height="65" viewBox="0 0 64 65" fill="none" xmlns="http://www.w3.org/2000/svg">
    <g clip-path="url(#clip0_426_2583)">
        <path
            d="M50.6667 0.462402H13.3333C9.79841 0.466637 6.40949 1.87275 3.90992 4.37232C1.41035 6.87189 0.00423429 10.2608 0 13.7957L0 51.1291C0.00423429 54.664 1.41035 58.0529 3.90992 60.5525C6.40949 63.0521 9.79841 64.4582 13.3333 64.4624H50.6667C54.2016 64.4582 57.5905 63.0521 60.0901 60.5525C62.5897 58.0529 63.9958 54.664 64 51.1291V13.7957C63.9958 10.2608 62.5897 6.87189 60.0901 4.37232C57.5905 1.87275 54.2016 0.466637 50.6667 0.462402V0.462402ZM58.6667 51.1291C58.6667 53.2508 57.8238 55.2856 56.3235 56.7859C54.8232 58.2862 52.7884 59.1291 50.6667 59.1291H13.3333C11.2116 59.1291 9.17677 58.2862 7.67648 56.7859C6.17619 55.2856 5.33333 53.2508 5.33333 51.1291V13.7957C5.33333 11.674 6.17619 9.63917 7.67648 8.13888C9.17677 6.63859 11.2116 5.79574 13.3333 5.79574H50.6667C52.7884 5.79574 54.8232 6.63859 56.3235 8.13888C57.8238 9.63917 58.6667 11.674 58.6667 13.7957V51.1291Z"
            fill="black" />
        <path
            d="M24.8881 42.913L14.4374 32.4623C13.9373 31.9624 13.2592 31.6815 12.5521 31.6815C11.845 31.6815 11.1668 31.9624 10.6667 32.4623C10.1668 32.9624 9.88599 33.6405 9.88599 34.3476C9.88599 35.0547 10.1668 35.7329 10.6667 36.233L21.1174 46.6836C21.6127 47.1791 22.2007 47.5722 22.8479 47.8403C23.4952 48.1085 24.1889 48.2465 24.8894 48.2465C25.59 48.2465 26.2837 48.1085 26.9309 47.8403C27.5781 47.5722 28.1661 47.1791 28.6614 46.6836L53.3334 22.0116C53.8333 21.5116 54.1142 20.8334 54.1142 20.1263C54.1142 19.4192 53.8333 18.741 53.3334 18.241C52.8333 17.741 52.1552 17.4602 51.4481 17.4602C50.741 17.4602 50.0628 17.741 49.5628 18.241L24.8881 42.913Z"
            fill="black" />
    </g>
    <defs>
        <clipPath id="clip0_426_2583">
            <rect width="64" height="64" fill="white" transform="translate(0 0.462402)" />
        </clipPath>
    </defs>
</svg>