<svg width="34" height="26" viewBox="0 0 34 26" fill="none" xmlns="http://www.w3.org/2000/svg">
    <path
        d="M28.1853 2.78159C28.1763 2.76427 28.1615 2.7507 28.1435 2.74331C26.0586 1.78675 23.8585 1.10465 21.5982 0.714075C21.5776 0.710258 21.5564 0.713012 21.5375 0.721946C21.5187 0.730881 21.5031 0.745541 21.493 0.763841C21.1934 1.30759 20.9215 1.86612 20.6782 2.43728C18.2416 2.06742 15.7633 2.06742 13.3267 2.43728C13.0818 1.86467 12.8055 1.306 12.499 0.763841C12.4885 0.745938 12.4729 0.731616 12.4541 0.72274C12.4353 0.713863 12.4143 0.710844 12.3938 0.714075C10.1333 1.10383 7.93298 1.78598 5.84839 2.74336C5.83055 2.75093 5.81549 2.76385 5.8053 2.78033C1.63652 9.00585 0.494539 15.0783 1.05476 21.0755C1.05633 21.0902 1.06085 21.1045 1.06804 21.1174C1.07522 21.1303 1.08494 21.1416 1.09659 21.1507C3.52403 22.9481 6.23915 24.32 9.12609 25.208C9.14642 25.214 9.16813 25.2138 9.1883 25.2072C9.20847 25.2006 9.22613 25.1879 9.23891 25.171C9.85896 24.3273 10.4084 23.4339 10.8816 22.4999C10.8881 22.4871 10.8918 22.4731 10.8924 22.4587C10.8931 22.4444 10.8908 22.43 10.8855 22.4166C10.8802 22.4033 10.8722 22.3912 10.8619 22.3811C10.8516 22.3711 10.8393 22.3633 10.8258 22.3584C9.95945 22.0269 9.12069 21.6273 8.31742 21.1633C8.30283 21.1547 8.29058 21.1427 8.28174 21.1283C8.2729 21.1138 8.26776 21.0974 8.26676 21.0805C8.26576 21.0636 8.26893 21.0468 8.27601 21.0314C8.28308 21.016 8.29383 21.0026 8.30731 20.9924C8.47585 20.8661 8.64451 20.7347 8.80545 20.6021C8.81975 20.5903 8.83705 20.5827 8.85541 20.5803C8.87377 20.5778 8.89245 20.5805 8.90936 20.5881C14.1719 22.9898 19.8693 22.9898 25.0695 20.5881C25.0865 20.58 25.1053 20.5769 25.124 20.5792C25.1426 20.5814 25.1602 20.5889 25.1747 20.6008C25.3357 20.7335 25.5043 20.8661 25.6741 20.9924C25.6877 21.0025 25.6985 21.0158 25.7057 21.0311C25.7129 21.0465 25.7162 21.0633 25.7153 21.0802C25.7145 21.0971 25.7094 21.1135 25.7007 21.128C25.692 21.1425 25.6798 21.1546 25.6653 21.1633C24.8638 21.6312 24.0243 22.0306 23.1557 22.3571C23.1422 22.3623 23.1299 22.3702 23.1197 22.3804C23.1095 22.3906 23.1015 22.4028 23.0964 22.4163C23.0912 22.4298 23.089 22.4442 23.0898 22.4586C23.0905 22.473 23.0944 22.4871 23.101 22.4999C23.5821 23.4287 24.1307 24.321 24.7424 25.1695C24.7548 25.1869 24.7724 25.2 24.7926 25.2068C24.8129 25.2137 24.8348 25.214 24.8552 25.2078C27.7473 24.3228 30.4672 22.9508 32.8976 21.1507C32.9095 21.1421 32.9193 21.131 32.9266 21.1183C32.9338 21.1055 32.9382 21.0914 32.9395 21.0768C33.6102 14.1434 31.8166 8.12068 28.1853 2.78159ZM11.6675 17.4238C10.0831 17.4238 8.77756 15.9699 8.77756 14.1842C8.77756 12.3986 10.0577 10.9445 11.6675 10.9445C13.2898 10.9445 14.5826 12.4112 14.5573 14.1841C14.5573 15.9699 13.2771 17.4238 11.6675 17.4238ZM22.3523 17.4238C20.768 17.4238 19.4625 15.9699 19.4625 14.1842C19.4625 12.3986 20.7426 10.9445 22.3523 10.9445C23.9747 10.9445 25.2675 12.4112 25.2422 14.1841C25.2422 15.9699 23.9747 17.4238 22.3523 17.4238Z"
        fill="black" />
</svg>