<svg width="21" height="20" viewBox="0 0 21 20" fill="none" xmlns="http://www.w3.org/2000/svg">
<path d="M15.1079 12.172C15.1079 13.012 15.3469 13.347 15.9719 13.347C17.365 13.347 18.2519 11.572 18.2519 8.62001C18.2519 4.10801 14.9639 1.94801 10.8589 1.94801C6.63595 1.94801 2.79495 4.78001 2.79495 10.132C2.79495 15.244 6.15495 18.028 11.3149 18.028C13.0669 18.028 14.2429 17.836 16.0419 17.236L16.4279 18.843C14.6519 19.42 12.754 19.587 11.2909 19.587C4.52295 19.587 0.897949 15.867 0.897949 10.131C0.897949 4.34701 5.09895 0.411011 10.8829 0.411011C16.9069 0.411011 20.0979 4.01101 20.0979 8.42701C20.0979 12.171 18.923 15.027 15.2269 15.027C13.5459 15.027 12.4429 14.355 12.2989 12.866C11.8669 14.522 10.7149 15.027 9.15395 15.027C7.06595 15.027 5.31395 13.418 5.31395 10.179C5.31395 6.91501 6.85095 4.89901 9.61095 4.89901C11.0749 4.89901 11.9869 5.47501 12.3929 6.38701L13.0899 5.11501H15.1059V12.172H15.1079ZM12.1569 9.00401C12.1569 7.68501 11.1719 7.13201 10.3559 7.13201C9.46795 7.13201 8.48495 7.85101 8.48495 9.96401C8.48495 11.644 9.22895 12.58 10.3559 12.58C11.1479 12.58 12.1569 12.076 12.1569 10.684V9.00401Z" fill="#00050F"/>
</svg>
