<svg width="36" height="36" viewBox="0 0 36 36" fill="none" xmlns="http://www.w3.org/2000/svg">
<rect width="36" height="36" rx="18" fill="#E5E7EB"/>
<path d="M25.0018 25.9502V24.0502C25.0018 23.0424 24.6014 22.0759 23.8888 21.3632C23.1761 20.6506 22.2096 20.2502 21.2018 20.2502H13.6018C12.5939 20.2502 11.6274 20.6506 10.9148 21.3632C10.2021 22.0759 9.80176 23.0424 9.80176 24.0502V25.9502" stroke="#111827" stroke-width="2.4" stroke-linecap="round" stroke-linejoin="round"/>
<path d="M17.4006 16.4503C19.4993 16.4503 21.2006 14.7489 21.2006 12.6503C21.2006 10.5516 19.4993 8.85025 17.4006 8.85025C15.3019 8.85025 13.6006 10.5516 13.6006 12.6503C13.6006 14.7489 15.3019 16.4503 17.4006 16.4503Z" stroke="#111827" stroke-width="2.4" stroke-linecap="round" stroke-linejoin="round"/>
</svg>
