<svg width="19" height="21" viewBox="0 0 19 21" fill="none" xmlns="http://www.w3.org/2000/svg">
<path d="M9.59692 11.1236C9.24893 11.1249 8.91101 11.2405 8.63512 11.4526C8.35923 11.6647 8.16064 11.9616 8.06987 12.2975C7.9791 12.6335 8.00119 12.9899 8.13273 13.3121C8.26427 13.6343 8.49798 13.9043 8.79795 14.0807V16.3461H10.4154V14.0807C10.6527 13.9404 10.8497 13.741 10.9871 13.5019C11.1245 13.2629 11.1978 12.9924 11.1997 12.7166V12.7166C11.1997 12.5066 11.1582 12.2987 11.0775 12.1047C10.9969 11.9108 10.8787 11.7348 10.7297 11.5867C10.5807 11.4386 10.404 11.3215 10.2096 11.242C10.0151 11.1625 9.80694 11.1223 9.59692 11.1236V11.1236Z" stroke="#00050F" stroke-linecap="round" stroke-linejoin="round"/>
<path d="M15.5844 7.46484H3.60462C2.44227 7.46484 1.5 8.40711 1.5 9.56946V17.8954C1.5 19.0577 2.44227 20 3.60462 20H15.5844C16.7467 20 17.689 19.0577 17.689 17.8954V9.56946C17.689 8.40711 16.7467 7.46484 15.5844 7.46484Z" stroke="#00050F" stroke-width="2" stroke-linecap="round" stroke-linejoin="round"/>
<path d="M4.40845 7.46487V6.19333C4.40845 4.81598 4.9556 3.49503 5.92954 2.52109C6.90348 1.54715 8.22442 1 9.60178 1C10.9791 1 12.3001 1.54715 13.274 2.52109C14.248 3.49503 14.7951 4.81598 14.7951 6.19333V7.46487" stroke="#00050F" stroke-width="2" stroke-linecap="round" stroke-linejoin="round"/>
</svg>
