<svg width="35" height="36" viewBox="0 0 35 36" fill="none" xmlns="http://www.w3.org/2000/svg">
<g clip-path="url(#clip0_426_2561)">
<path d="M8.02075 25.0229C9.22887 25.0229 10.2083 24.0436 10.2083 22.8354C10.2083 21.6273 9.22887 20.6479 8.02075 20.6479C6.81263 20.6479 5.83325 21.6273 5.83325 22.8354C5.83325 24.0436 6.81263 25.0229 8.02075 25.0229Z" fill="black"/>
<path d="M30.625 4.6062H4.375C3.21468 4.6062 2.10188 5.06714 1.28141 5.88761C0.460936 6.70808 0 7.82088 0 8.9812L0 30.8562H35V8.9812C35 7.82088 34.5391 6.70808 33.7186 5.88761C32.8981 5.06714 31.7853 4.6062 30.625 4.6062ZM4.375 7.52287H30.625C31.0118 7.52287 31.3827 7.67651 31.6562 7.95C31.9297 8.22349 32.0833 8.59443 32.0833 8.9812V11.8979H2.91667V8.9812C2.91667 8.59443 3.07031 8.22349 3.3438 7.95C3.61729 7.67651 3.98823 7.52287 4.375 7.52287ZM2.91667 27.9395V14.8145H32.0833V27.9395H2.91667Z" fill="black"/>
</g>
<defs>
<clipPath id="clip0_426_2561">
<rect width="35" height="35" fill="white" transform="translate(0 0.231201)"/>
</clipPath>
</defs>
</svg>
