<svg width="35" height="36" viewBox="0 0 35 36" fill="none" xmlns="http://www.w3.org/2000/svg">
<g clip-path="url(#clip0_426_2656)">
<path d="M32.7906 16.5052L17.5 25.681L2.20939 16.5052C1.87774 16.3062 1.48061 16.2471 1.10538 16.3409C0.730152 16.4347 0.407557 16.6737 0.208561 17.0054C0.0095661 17.3371 -0.0495279 17.7342 0.0442794 18.1094C0.138087 18.4846 0.377111 18.8072 0.70877 19.0062L16.7504 28.6312C16.9773 28.7675 17.2369 28.8395 17.5015 28.8395C17.7661 28.8395 18.0257 28.7675 18.2525 28.6312L34.2942 19.0062C34.6259 18.8072 34.8649 18.4846 34.9587 18.1094C35.0525 17.7342 34.9934 17.3371 34.7944 17.0054C34.5954 16.6737 34.2728 16.4347 33.8976 16.3409C33.5224 16.2471 33.1252 16.3062 32.7936 16.5052H32.7906Z" fill="black"/>
<path d="M32.7906 23.1668L17.5 32.3412L2.20939 23.1668C2.04517 23.0683 1.86315 23.0031 1.67372 22.9749C1.4843 22.9467 1.29117 22.9561 1.10538 23.0025C0.919583 23.049 0.744756 23.1316 0.590879 23.2456C0.437003 23.3596 0.307089 23.5028 0.208557 23.667C0.110025 23.8312 0.0448026 24.0133 0.0166151 24.2027C-0.0115725 24.3921 -0.00217363 24.5852 0.044275 24.771C0.138082 25.1463 0.377107 25.4689 0.708765 25.6679L16.7504 35.2929C16.9772 35.4291 17.2369 35.5011 17.5015 35.5011C17.7661 35.5011 18.0257 35.4291 18.2525 35.2929L34.2942 25.6679C34.6258 25.4689 34.8649 25.1463 34.9587 24.771C35.0525 24.3958 34.9934 23.9987 34.7944 23.667C34.5954 23.3354 34.2728 23.0963 33.8976 23.0025C33.5223 22.9087 33.1252 22.9678 32.7936 23.1668H32.7906Z" fill="black"/>
<path d="M17.5 22.044C16.7134 22.0436 15.9416 21.8293 15.2673 21.4242L0.707319 12.6873C0.491701 12.5577 0.313293 12.3745 0.189436 12.1555C0.0655799 11.9365 0.000488281 11.6891 0.000488281 11.4375C0.000488281 11.1859 0.0655799 10.9386 0.189436 10.7196C0.313293 10.5006 0.491701 10.3174 0.707319 10.1877L15.2673 1.45087C15.9416 1.04579 16.7134 0.831787 17.5 0.831787C18.2866 0.831787 19.0584 1.04579 19.7327 1.45087L34.2927 10.1877C34.5084 10.3174 34.6868 10.5006 34.8106 10.7196C34.9345 10.9386 34.9996 11.1859 34.9996 11.4375C34.9996 11.6891 34.9345 11.9365 34.8106 12.1555C34.6868 12.3745 34.5084 12.5577 34.2927 12.6873L19.7327 21.4242C19.0584 21.8293 18.2867 22.0436 17.5 22.044ZM4.29336 11.4375L16.7709 18.9232C16.9912 19.055 17.2432 19.1246 17.5 19.1246C17.7568 19.1246 18.0088 19.055 18.2292 18.9232L30.7067 11.4375L18.2292 3.95192C18.0088 3.82009 17.7568 3.75047 17.5 3.75047C17.2432 3.75047 16.9912 3.82009 16.7709 3.95192L4.29336 11.4375Z" fill="black"/>
</g>
<defs>
<clipPath id="clip0_426_2656">
<rect width="35" height="35" fill="white" transform="translate(0 0.5)"/>
</clipPath>
</defs>
</svg>
