<svg width="35" height="36" viewBox="0 0 35 36" fill="none" xmlns="http://www.w3.org/2000/svg">
<g clip-path="url(#clip0_426_2545)">
<path d="M5.83326 32.3146C5.25831 32.3161 4.68877 32.2036 4.15759 31.9836C3.62642 31.7635 3.14414 31.4403 2.73867 31.0327L0.487006 29.029C0.198085 28.7714 0.0233264 28.4096 0.00117362 28.0231C-0.0209791 27.6367 0.111289 27.2573 0.368881 26.9683C0.626472 26.6794 0.988286 26.5047 1.37473 26.4825C1.76117 26.4604 2.14059 26.5926 2.42951 26.8502L4.74096 28.9123C4.87329 29.0609 5.03462 29.1809 5.21503 29.2648C5.39545 29.3487 5.59113 29.3948 5.79003 29.4003C5.98893 29.4057 6.18684 29.3704 6.37159 29.2965C6.55634 29.2227 6.72401 29.1117 6.8643 28.9706L12.1143 23.9671C12.2514 23.8276 12.4152 23.7172 12.5959 23.6423C12.7766 23.5674 12.9705 23.5297 13.1661 23.5313C13.3617 23.5328 13.5549 23.5738 13.7344 23.6516C13.9138 23.7294 14.0758 23.8425 14.2106 23.9842C14.3454 24.1259 14.4504 24.2932 14.5192 24.4763C14.588 24.6594 14.6193 24.8544 14.6113 25.0499C14.6032 25.2453 14.5559 25.4371 14.4721 25.6138C14.3884 25.7906 14.27 25.9487 14.1239 26.0788L8.89576 31.0575C8.49292 31.458 8.01511 31.7752 7.48962 31.9909C6.96413 32.2066 6.40129 32.3166 5.83326 32.3146ZM33.5416 30.8563H18.9583C18.5715 30.8563 18.2006 30.7026 17.9271 30.4291C17.6536 30.1556 17.4999 29.7847 17.4999 29.3979C17.4999 29.0112 17.6536 28.6402 17.9271 28.3667C18.2006 28.0932 18.5715 27.9396 18.9583 27.9396H33.5416C33.9284 27.9396 34.2993 28.0932 34.5728 28.3667C34.8463 28.6402 34.9999 29.0112 34.9999 29.3979C34.9999 29.7847 34.8463 30.1556 34.5728 30.4291C34.2993 30.7026 33.9284 30.8563 33.5416 30.8563ZM5.83326 20.6479C5.25831 20.6494 4.68877 20.5369 4.15759 20.3169C3.62642 20.0969 3.14414 19.7737 2.73867 19.3661L0.427214 17.0546C0.161567 16.7795 0.0145749 16.4112 0.0178976 16.0288C0.0212202 15.6464 0.174592 15.2807 0.444978 15.0103C0.715365 14.7399 1.08113 14.5865 1.4635 14.5832C1.84587 14.5799 2.21425 14.7269 2.4893 14.9925L4.80221 17.304C5.07983 17.5694 5.44914 17.7176 5.83326 17.7176C6.21737 17.7176 6.58668 17.5694 6.8643 17.304L12.1143 12.3004C12.3943 12.0332 12.769 11.8881 13.156 11.8971C13.543 11.9061 13.9106 12.0685 14.1778 12.3486C14.4451 12.6286 14.5902 13.0033 14.5812 13.3903C14.5721 13.7773 14.4097 14.1448 14.1297 14.4121L8.89576 19.3908C8.49292 19.7913 8.01511 20.1085 7.48962 20.3242C6.96413 20.5399 6.40129 20.6499 5.83326 20.6479ZM33.5416 19.1896H18.9583C18.5715 19.1896 18.2006 19.0359 17.9271 18.7625C17.6536 18.489 17.4999 18.118 17.4999 17.7313C17.4999 17.3445 17.6536 16.9736 17.9271 16.7001C18.2006 16.4266 18.5715 16.2729 18.9583 16.2729H33.5416C33.9284 16.2729 34.2993 16.4266 34.5728 16.7001C34.8463 16.9736 34.9999 17.3445 34.9999 17.7313C34.9999 18.118 34.8463 18.489 34.5728 18.7625C34.2993 19.0359 33.9284 19.1896 33.5416 19.1896ZM5.83326 8.98126C5.25831 8.98277 4.68877 8.87025 4.15759 8.65022C3.62642 8.43019 3.14414 8.10701 2.73867 7.69939L0.487006 5.69564C0.198085 5.43804 0.0233264 5.07623 0.00117362 4.68979C-0.0209791 4.30335 0.111289 3.92393 0.368881 3.63501C0.626472 3.34609 0.988286 3.17133 1.37473 3.14918C1.76117 3.12703 2.14059 3.25929 2.42951 3.51689L4.74096 5.57897C4.87329 5.72757 5.03462 5.84752 5.21503 5.93143C5.39545 6.01535 5.59113 6.06146 5.79003 6.06692C5.98893 6.07239 6.18684 6.03709 6.37159 5.96321C6.55634 5.88932 6.72401 5.77841 6.8643 5.6373L12.1201 0.633761C12.4027 0.382155 12.7721 0.250247 13.1502 0.265898C13.5282 0.281548 13.8854 0.443533 14.1463 0.717637C14.4071 0.991741 14.5512 1.3565 14.5481 1.73488C14.545 2.11325 14.395 2.47561 14.1297 2.74543L8.89576 7.72418C8.49292 8.12466 8.01511 8.44182 7.48962 8.65752C6.96413 8.87322 6.40129 8.98323 5.83326 8.98126ZM33.5416 7.52293H18.9583C18.5715 7.52293 18.2006 7.36928 17.9271 7.09579C17.6536 6.8223 17.4999 6.45137 17.4999 6.06459C17.4999 5.67782 17.6536 5.30689 17.9271 5.0334C18.2006 4.75991 18.5715 4.60626 18.9583 4.60626H33.5416C33.9284 4.60626 34.2993 4.75991 34.5728 5.0334C34.8463 5.30689 34.9999 5.67782 34.9999 6.06459C34.9999 6.45137 34.8463 6.8223 34.5728 7.09579C34.2993 7.36928 33.9284 7.52293 33.5416 7.52293Z" fill="black"/>
</g>
<defs>
<clipPath id="clip0_426_2545">
<rect width="35" height="35" fill="white" transform="translate(0 0.231201)"/>
</clipPath>
</defs>
</svg>
