<svg width="35" height="36" viewBox="0 0 35 36" fill="none" xmlns="http://www.w3.org/2000/svg">
<g clip-path="url(#clip0_426_2550)">
<path d="M27.7083 0.231201H7.29167C5.35851 0.233517 3.50519 1.00249 2.13824 2.36944C0.771286 3.73639 0.00231563 5.58971 0 7.52287L0 27.9395C0.00231563 29.8727 0.771286 31.726 2.13824 33.093C3.50519 34.4599 5.35851 35.2289 7.29167 35.2312H27.7083C29.6415 35.2289 31.4948 34.4599 32.8618 33.093C34.2287 31.726 34.9977 29.8727 35 27.9395V7.52287C34.9977 5.58971 34.2287 3.73639 32.8618 2.36944C31.4948 1.00249 29.6415 0.233517 27.7083 0.231201V0.231201ZM7.29167 3.14787H27.7083C28.8687 3.14787 29.9815 3.6088 30.8019 4.42928C31.6224 5.24975 32.0833 6.36255 32.0833 7.52287V27.9395C32.0808 28.5892 31.9312 29.2299 31.6458 29.8135L18.2831 16.4508C17.606 15.7735 16.8021 15.2362 15.9173 14.8697C15.0325 14.5031 14.0842 14.3144 13.1265 14.3144C12.1687 14.3144 11.2204 14.5031 10.3356 14.8697C9.45082 15.2362 8.64691 15.7735 7.96979 16.4508L2.91667 21.5025V7.52287C2.91667 6.36255 3.3776 5.24975 4.19807 4.42928C5.01855 3.6088 6.13134 3.14787 7.29167 3.14787ZM7.29167 32.3145C6.13134 32.3145 5.01855 31.8536 4.19807 31.0331C3.3776 30.2127 2.91667 29.0999 2.91667 27.9395V25.6266L10.0304 18.5129C10.4367 18.1063 10.9191 17.7838 11.4501 17.5638C11.9811 17.3437 12.5502 17.2305 13.125 17.2305C13.6998 17.2305 14.2689 17.3437 14.7999 17.5638C15.3309 17.7838 15.8133 18.1063 16.2196 18.5129L29.5823 31.877C28.9987 32.1624 28.358 32.312 27.7083 32.3145H7.29167Z" fill="black"/>
<path d="M23.3334 15.5438C24.3429 15.5438 25.3298 15.2444 26.1691 14.6836C27.0085 14.1227 27.6627 13.3256 28.0491 12.3929C28.4354 11.4602 28.5365 10.434 28.3395 9.44385C28.1426 8.45373 27.6564 7.54426 26.9426 6.83043C26.2288 6.1166 25.3193 5.63047 24.3292 5.43353C23.3391 5.23658 22.3128 5.33766 21.3801 5.72398C20.4475 6.11031 19.6503 6.76452 19.0895 7.6039C18.5286 8.44327 18.2292 9.43011 18.2292 10.4396C18.2292 11.7933 18.767 13.0916 19.7242 14.0488C20.6814 15.006 21.9797 15.5438 23.3334 15.5438ZM23.3334 8.25212C23.7661 8.25212 24.189 8.38041 24.5487 8.62078C24.9085 8.86114 25.1888 9.20279 25.3544 9.6025C25.52 10.0022 25.5633 10.442 25.4789 10.8664C25.3945 11.2907 25.1861 11.6805 24.8802 11.9864C24.5743 12.2923 24.1845 12.5007 23.7602 12.5851C23.3358 12.6695 22.896 12.6262 22.4963 12.4606C22.0966 12.295 21.7549 12.0147 21.5146 11.6549C21.2742 11.2952 21.1459 10.8723 21.1459 10.4396C21.1459 9.85946 21.3764 9.30306 21.7866 8.89282C22.1969 8.48259 22.7533 8.25212 23.3334 8.25212Z" fill="black"/>
</g>
<defs>
<clipPath id="clip0_426_2550">
<rect width="35" height="35" fill="white" transform="translate(0 0.231201)"/>
</clipPath>
</defs>
</svg>
