<svg width="35" height="36" viewBox="0 0 35 36" fill="none" xmlns="http://www.w3.org/2000/svg">
<g clip-path="url(#clip0_426_2667)">
<path d="M24.0625 0.5H10.9375C8.81091 0.502316 6.77213 1.34811 5.26843 2.85181C3.76474 4.3555 2.91894 6.39429 2.91663 8.52083V27.4792C2.91894 29.6057 3.76474 31.6445 5.26843 33.1482C6.77213 34.6519 8.81091 35.4977 10.9375 35.5H24.0625C26.189 35.4977 28.2278 34.6519 29.7315 33.1482C31.2352 31.6445 32.081 29.6057 32.0833 27.4792V8.52083C32.081 6.39429 31.2352 4.3555 29.7315 2.85181C28.2278 1.34811 26.189 0.502316 24.0625 0.5V0.5ZM27.7083 26.75H18.9583V28.2083C18.9583 28.5951 18.8046 28.966 18.5312 29.2395C18.2577 29.513 17.8867 29.6667 17.5 29.6667C17.1132 29.6667 16.7423 29.513 16.4688 29.2395C16.1953 28.966 16.0416 28.5951 16.0416 28.2083V26.75H7.29163V8.52083C7.29163 7.5539 7.67574 6.62657 8.35947 5.94284C9.04319 5.25911 9.97052 4.875 10.9375 4.875H24.0625C25.0294 4.875 25.9567 5.25911 26.6405 5.94284C27.3242 6.62657 27.7083 7.5539 27.7083 8.52083V26.75Z" fill="black"/>
</g>
<defs>
<clipPath id="clip0_426_2667">
<rect width="35" height="35" fill="white" transform="translate(0 0.5)"/>
</clipPath>
</defs>
</svg>
