<svg width="35" height="38" viewBox="0 0 35 38" fill="none" xmlns="http://www.w3.org/2000/svg">
<g clip-path="url(#clip0_426_2521)">
<path d="M24.6833 0.181152H24.4827C23.7923 0.187502 23.1236 0.415625 22.5816 0.829706C22.0397 1.24379 21.6551 1.82037 21.4883 2.46894C21.3097 3.10038 20.9217 3.65752 20.3841 4.05464C19.8464 4.45177 19.1888 4.66688 18.5125 4.66688C17.8361 4.66688 17.1786 4.45177 16.6409 4.05464C16.1032 3.65752 15.7152 3.10038 15.5366 2.46894C15.3698 1.82037 14.9853 1.24379 14.4433 0.829706C13.9013 0.415625 13.2326 0.187502 12.5422 0.181152L12.3417 0.181152C10.2967 0.183524 8.33614 0.970949 6.89011 2.37071C5.44408 3.77047 4.63062 5.66826 4.62817 7.64782V31.5412C4.62817 32.7293 5.11578 33.8688 5.98371 34.709C6.85165 35.5492 8.02882 36.0212 9.25627 36.0212H12.5422C13.2326 36.0148 13.9013 35.7867 14.4433 35.3726C14.9853 34.9585 15.3698 34.3819 15.5366 33.7334C15.7152 33.1019 16.1032 32.5448 16.6409 32.1477C17.1786 31.7505 17.8361 31.5354 18.5125 31.5354C19.1888 31.5354 19.8464 31.7505 20.3841 32.1477C20.9217 32.5448 21.3097 33.1019 21.4883 33.7334C21.6551 34.3819 22.0397 34.9585 22.5816 35.3726C23.1236 35.7867 23.7923 36.0148 24.4827 36.0212H27.7687C28.9961 36.0212 30.1733 35.5492 31.0412 34.709C31.9092 33.8688 32.3968 32.7293 32.3968 31.5412V7.64782C32.3943 5.66826 31.5809 3.77047 30.1348 2.37071C28.6888 0.970949 26.7283 0.183524 24.6833 0.181152V0.181152ZM27.7687 33.0345L24.4627 32.9404C24.1003 31.6732 23.3162 30.5571 22.2318 29.7652C21.1474 28.9734 19.8234 28.55 18.4652 28.5607C17.1069 28.5714 15.7902 29.0157 14.7193 29.8245C13.6484 30.6334 12.8832 31.7617 12.5422 33.0345H9.25627C8.84712 33.0345 8.45473 32.8772 8.16542 32.5971C7.87611 32.317 7.71357 31.9372 7.71357 31.5412V25.5678H10.799C11.2081 25.5678 11.6005 25.4105 11.8898 25.1304C12.1791 24.8504 12.3417 24.4705 12.3417 24.0745C12.3417 23.6784 12.1791 23.2986 11.8898 23.0185C11.6005 22.7385 11.2081 22.5812 10.799 22.5812H7.71357V7.64782C7.71357 6.45965 8.20118 5.32014 9.06911 4.47998C9.93705 3.63982 11.1142 3.16782 12.3417 3.16782L12.5623 3.2619C12.9236 4.52142 13.7008 5.63189 14.7752 6.42381C15.8495 7.21573 17.1621 7.64561 18.5125 7.64782C19.8811 7.63655 21.2084 7.1928 22.2925 6.3841C23.3767 5.57541 24.1582 4.44603 24.5182 3.16782H24.6833C25.9107 3.16782 27.0879 3.63982 27.9558 4.47998C28.8238 5.32014 29.3114 6.45965 29.3114 7.64782V22.5812H26.226C25.8168 22.5812 25.4244 22.7385 25.1351 23.0185C24.8458 23.2986 24.6833 23.6784 24.6833 24.0745C24.6833 24.4705 24.8458 24.8504 25.1351 25.1304C25.4244 25.4105 25.8168 25.5678 26.226 25.5678H29.3114V31.5412C29.3114 31.9372 29.1488 32.317 28.8595 32.5971C28.5702 32.8772 28.1778 33.0345 27.7687 33.0345Z" fill="black"/>
<path d="M20.0551 22.5811H16.9697C16.5606 22.5811 16.1682 22.7384 15.8788 23.0184C15.5895 23.2985 15.427 23.6783 15.427 24.0744C15.427 24.4704 15.5895 24.8503 15.8788 25.1303C16.1682 25.4104 16.5606 25.5677 16.9697 25.5677H20.0551C20.4643 25.5677 20.8566 25.4104 21.146 25.1303C21.4353 24.8503 21.5978 24.4704 21.5978 24.0744C21.5978 23.6783 21.4353 23.2985 21.146 23.0184C20.8566 22.7384 20.4643 22.5811 20.0551 22.5811Z" fill="black"/>
</g>
<defs>
<clipPath id="clip0_426_2521">
<rect width="35" height="37.1" fill="white" transform="translate(0 0.181152)"/>
</clipPath>
</defs>
</svg>
