<svg width="35" height="36" viewBox="0 0 35 36" fill="none" xmlns="http://www.w3.org/2000/svg">
<g clip-path="url(#clip0_426_2676)">
<path d="M17.5 23.8333C16.3463 23.8333 15.2185 23.4912 14.2592 22.8502C13.2999 22.2093 12.5522 21.2982 12.1107 20.2323C11.6692 19.1664 11.5537 17.9935 11.7788 16.862C12.0038 15.7304 12.5594 14.691 13.3752 13.8752C14.191 13.0594 15.2304 12.5038 16.362 12.2788C17.4935 12.0537 18.6664 12.1692 19.7323 12.6107C20.7982 13.0522 21.7093 13.7999 22.3502 14.7592C22.9912 15.7185 23.3333 16.8463 23.3333 18C23.3333 19.5471 22.7188 21.0308 21.6248 22.1248C20.5308 23.2188 19.0471 23.8333 17.5 23.8333ZM17.5 15.0833C16.9231 15.0833 16.3592 15.2544 15.8796 15.5749C15.3999 15.8954 15.0261 16.3509 14.8054 16.8838C14.5846 17.4168 14.5268 18.0032 14.6394 18.569C14.7519 19.1348 15.0297 19.6545 15.4376 20.0624C15.8455 20.4703 16.3652 20.7481 16.931 20.8606C17.4968 20.9732 18.0832 20.9154 18.6162 20.6947C19.1491 20.4739 19.6046 20.1001 19.9251 19.6204C20.2456 19.1408 20.4167 18.5769 20.4167 18C20.4167 17.2265 20.1094 16.4846 19.5624 15.9376C19.0154 15.3906 18.2735 15.0833 17.5 15.0833ZM26.25 34.0417C26.25 31.721 25.3281 29.4954 23.6872 27.8545C22.0462 26.2135 19.8206 25.2917 17.5 25.2917C15.1794 25.2917 12.9538 26.2135 11.3128 27.8545C9.67187 29.4954 8.75 31.721 8.75 34.0417C8.75 34.4284 8.90365 34.7994 9.17714 35.0729C9.45063 35.3464 9.82156 35.5 10.2083 35.5C10.5951 35.5 10.966 35.3464 11.2395 35.0729C11.513 34.7994 11.6667 34.4284 11.6667 34.0417C11.6667 32.4946 12.2812 31.0108 13.3752 29.9169C14.4692 28.8229 15.9529 28.2083 17.5 28.2083C19.0471 28.2083 20.5308 28.8229 21.6248 29.9169C22.7188 31.0108 23.3333 32.4946 23.3333 34.0417C23.3333 34.4284 23.487 34.7994 23.7605 35.0729C24.034 35.3464 24.4049 35.5 24.7917 35.5C25.1784 35.5 25.5494 35.3464 25.8229 35.0729C26.0964 34.7994 26.25 34.4284 26.25 34.0417ZM26.25 12.1667C25.0963 12.1667 23.9685 11.8246 23.0092 11.1836C22.0499 10.5426 21.3022 9.63156 20.8607 8.56566C20.4192 7.49975 20.3037 6.32687 20.5288 5.19531C20.7538 4.06375 21.3094 3.02435 22.1252 2.20855C22.941 1.39274 23.9804 0.837169 25.112 0.612088C26.2435 0.387008 27.4164 0.502527 28.4823 0.944039C29.5482 1.38555 30.4593 2.13322 31.1002 3.09251C31.7412 4.0518 32.0833 5.17961 32.0833 6.33334C32.0833 7.88043 31.4688 9.36416 30.3748 10.4581C29.2808 11.5521 27.7971 12.1667 26.25 12.1667ZM26.25 3.41667C25.6731 3.41667 25.1092 3.58773 24.6296 3.90822C24.1499 4.2287 23.7761 4.68423 23.5554 5.21718C23.3346 5.75013 23.2768 6.33657 23.3894 6.90235C23.5019 7.46813 23.7797 7.98783 24.1876 8.39573C24.5955 8.80363 25.1152 9.08142 25.681 9.19396C26.2468 9.3065 26.8332 9.24874 27.3662 9.02799C27.8991 8.80723 28.3546 8.43339 28.6751 7.95375C28.9956 7.47411 29.1667 6.9102 29.1667 6.33334C29.1667 5.55979 28.8594 4.81792 28.3124 4.27094C27.7654 3.72396 27.0235 3.41667 26.25 3.41667ZM35 22.375C34.9977 20.0551 34.0751 17.8308 32.4346 16.1904C30.7942 14.5499 28.5699 13.6273 26.25 13.625C25.8632 13.625 25.4923 13.7786 25.2188 14.0521C24.9453 14.3256 24.7917 14.6966 24.7917 15.0833C24.7917 15.4701 24.9453 15.841 25.2188 16.1145C25.4923 16.388 25.8632 16.5417 26.25 16.5417C27.7971 16.5417 29.2808 17.1563 30.3748 18.2502C31.4688 19.3442 32.0833 20.8279 32.0833 22.375C32.0833 22.7618 32.237 23.1327 32.5105 23.4062C32.784 23.6797 33.1549 23.8333 33.5417 23.8333C33.9284 23.8333 34.2994 23.6797 34.5729 23.4062C34.8464 23.1327 35 22.7618 35 22.375ZM8.75 12.1667C7.59628 12.1667 6.46846 11.8246 5.50917 11.1836C4.54989 10.5426 3.80221 9.63156 3.3607 8.56566C2.91919 7.49975 2.80367 6.32687 3.02875 5.19531C3.25383 4.06375 3.8094 3.02435 4.62521 2.20855C5.44102 1.39274 6.48042 0.837169 7.61197 0.612088C8.74353 0.387008 9.91642 0.502527 10.9823 0.944039C12.0482 1.38555 12.9593 2.13322 13.6002 3.09251C14.2412 4.0518 14.5833 5.17961 14.5833 6.33334C14.5833 7.88043 13.9688 9.36416 12.8748 10.4581C11.7808 11.5521 10.2971 12.1667 8.75 12.1667ZM8.75 3.41667C8.17314 3.41667 7.60923 3.58773 7.12959 3.90822C6.64994 4.2287 6.27611 4.68423 6.05535 5.21718C5.8346 5.75013 5.77684 6.33657 5.88938 6.90235C6.00192 7.46813 6.2797 7.98783 6.68761 8.39573C7.09551 8.80363 7.61521 9.08142 8.18099 9.19396C8.74677 9.3065 9.33321 9.24874 9.86616 9.02799C10.3991 8.80723 10.8546 8.43339 11.1751 7.95375C11.4956 7.47411 11.6667 6.9102 11.6667 6.33334C11.6667 5.55979 11.3594 4.81792 10.8124 4.27094C10.2654 3.72396 9.52355 3.41667 8.75 3.41667ZM2.91667 22.375C2.91667 20.8279 3.53125 19.3442 4.62521 18.2502C5.71917 17.1563 7.2029 16.5417 8.75 16.5417C9.13677 16.5417 9.50771 16.388 9.7812 16.1145C10.0547 15.841 10.2083 15.4701 10.2083 15.0833C10.2083 14.6966 10.0547 14.3256 9.7812 14.0521C9.50771 13.7786 9.13677 13.625 8.75 13.625C6.43007 13.6273 4.20582 14.5499 2.56537 16.1904C0.924933 17.8308 0.00231646 20.0551 0 22.375C0 22.7618 0.153645 23.1327 0.427136 23.4062C0.700627 23.6797 1.07156 23.8333 1.45833 23.8333C1.84511 23.8333 2.21604 23.6797 2.48953 23.4062C2.76302 23.1327 2.91667 22.7618 2.91667 22.375Z" fill="black"/>
</g>
<defs>
<clipPath id="clip0_426_2676">
<rect width="35" height="35" fill="white" transform="translate(0 0.5)"/>
</clipPath>
</defs>
</svg>
