<svg width="35" height="36" viewBox="0 0 35 36" fill="none" xmlns="http://www.w3.org/2000/svg">
<g clip-path="url(#clip0_426_2686)">
<path d="M17.5 18C19.2306 18 20.9223 17.4868 22.3612 16.5254C23.8002 15.5639 24.9217 14.1973 25.5839 12.5985C26.2462 10.9996 26.4195 9.2403 26.0819 7.54296C25.7443 5.84563 24.9109 4.28653 23.6872 3.06282C22.4635 1.83911 20.9044 1.00575 19.207 0.668133C17.5097 0.330512 15.7504 0.503791 14.1515 1.16606C12.5527 1.82832 11.1861 2.94983 10.2246 4.38876C9.26318 5.82769 8.75 7.51942 8.75 9.25C8.75232 11.5699 9.67493 13.7942 11.3154 15.4346C12.9558 17.0751 15.1801 17.9977 17.5 18ZM17.5 3.41667C18.6537 3.41667 19.7815 3.75879 20.7408 4.39976C21.7001 5.04074 22.4478 5.95178 22.8893 7.01768C23.3308 8.08359 23.4463 9.25647 23.2212 10.388C22.9962 11.5196 22.4406 12.559 21.6248 13.3748C20.809 14.1906 19.7696 14.7462 18.638 14.9713C17.5065 15.1963 16.3336 15.0808 15.2677 14.6393C14.2018 14.1978 13.2907 13.4501 12.6498 12.4908C12.0088 11.5315 11.6667 10.4037 11.6667 9.25C11.6667 7.70291 12.2812 6.21918 13.3752 5.12521C14.4692 4.03125 15.9529 3.41667 17.5 3.41667Z" fill="black"/>
<path d="M17.5 20.9167C14.0202 20.9206 10.6841 22.3047 8.22349 24.7652C5.76291 27.2258 4.37886 30.562 4.375 34.0417C4.375 34.4285 4.52865 34.7995 4.80214 35.0729C5.07563 35.3464 5.44656 35.5001 5.83333 35.5001C6.22011 35.5001 6.59104 35.3464 6.86453 35.0729C7.13802 34.7995 7.29167 34.4285 7.29167 34.0417C7.29167 31.3343 8.36718 28.7378 10.2816 26.8234C12.1961 24.9089 14.7926 23.8334 17.5 23.8334C20.2074 23.8334 22.8039 24.9089 24.7184 26.8234C26.6328 28.7378 27.7083 31.3343 27.7083 34.0417C27.7083 34.4285 27.862 34.7995 28.1355 35.0729C28.409 35.3464 28.7799 35.5001 29.1667 35.5001C29.5534 35.5001 29.9244 35.3464 30.1979 35.0729C30.4714 34.7995 30.625 34.4285 30.625 34.0417C30.6211 30.562 29.2371 27.2258 26.7765 24.7652C24.3159 22.3047 20.9798 20.9206 17.5 20.9167Z" fill="black"/>
</g>
<defs>
<clipPath id="clip0_426_2686">
<rect width="35" height="35" fill="white" transform="translate(0 0.5)"/>
</clipPath>
</defs>
</svg>
